<svg width="161" height="122" viewBox="0 0 161 122" fill="none" xmlns="http://www.w3.org/2000/svg">
<g clip-path="url(#clip0_1_8)">
<path d="M126.127 38.8232C126.627 39.6431 127.127 40.365 127.533 41.1418C127.974 41.9892 128.329 42.8836 128.715 43.7624C129.018 44.4411 129.314 45.1237 129.617 45.8063C129.645 45.8652 129.688 45.924 129.688 45.9829C129.704 46.536 129.995 46.999 130.188 47.4933C130.653 48.6859 131.087 49.8864 131.571 51.0712C131.934 51.9578 132.304 52.8444 132.84 53.6447C133.139 54.088 133.175 54.6608 133.6 55.0414C134.297 55.6651 134.774 56.5164 135.562 57.0421C136.425 57.6188 137.229 58.3485 138.32 58.478C139.214 58.5839 140.116 58.6663 141.011 58.4349C141.113 58.4074 141.219 58.3682 141.322 58.3682C142.133 58.3682 142.878 58.1092 143.623 57.815C143.997 57.6698 144.407 57.6189 144.797 57.5129C144.982 57.4619 145.151 57.3678 145.332 57.305C145.833 57.1245 146.337 56.9519 146.841 56.7715C147.101 56.6773 147.365 56.591 147.617 56.4811C147.795 56.4027 147.952 56.2889 148.118 56.1948C149.311 55.5318 150.501 54.8727 151.616 54.0645C152.735 53.2563 153.653 52.2638 154.61 51.3026C155.15 50.7573 155.615 50.1414 156.091 49.5372C156.407 49.1371 156.722 48.7369 156.793 48.1877C156.848 47.7718 157.238 47.4933 157.683 47.509C158.948 47.5561 160.051 47.9837 160.709 49.3921C160.917 49.8432 160.736 50.3022 161.004 50.7063C160.094 51.5066 159.412 52.4482 158.751 53.4133C158.404 53.9154 158.042 54.4568 157.403 54.7432C157.076 54.8923 156.887 55.3238 156.627 55.622C156.245 56.0653 155.883 56.5361 155.457 56.9401C155.106 57.2736 154.677 57.5208 154.291 57.815C154.086 57.9719 153.877 58.1288 153.708 58.3172C153.007 59.1018 152.116 59.5804 151.147 59.9335C150.442 60.1885 149.737 60.4435 149.032 60.6985C147.665 61.1928 146.357 61.844 144.923 62.1618C143.741 62.4207 142.555 62.507 141.349 62.4914C140.018 62.4717 138.702 62.307 137.418 61.9617C136.263 61.6518 135.239 61.0437 134.294 60.3336C133.494 59.7334 132.694 59.09 132.052 58.3329C131.185 57.3089 130.448 56.1751 129.7 55.0571C129.326 54.496 129.058 53.8684 128.735 53.276C127.801 51.5459 127.167 49.6824 126.371 47.8934C126.336 47.815 126.316 47.7287 126.304 47.6463C126.178 46.7204 125.756 45.9123 125.292 45.1237C125.217 44.9943 125.118 44.8569 125.106 44.7196C125.028 43.7781 124.476 43.0052 124.169 42.15C124.035 41.7734 123.763 41.8244 123.491 42.1186C123.046 42.6051 123.137 43.2249 123.003 43.782C122.727 44.9197 122.53 46.077 122.29 47.2226C122.144 47.9091 121.884 48.5878 121.837 49.2822C121.754 50.5062 121.407 51.7028 121.533 52.9503C121.6 53.6055 121.411 54.2136 120.749 54.5745C120.532 54.6922 120.387 54.7001 120.158 54.6059C119.894 54.5 119.587 54.4333 119.303 54.445C118.539 54.4843 117.724 54.0135 117.416 53.2956C117.231 52.864 117.046 52.4325 116.865 52.0127C117.152 50.212 117.444 48.4152 117.735 46.591C117.641 46.5988 117.566 46.5792 117.523 46.6067C117.03 46.948 116.55 46.948 116.026 46.642C115.848 46.54 115.588 46.5753 115.297 46.54C115.175 47.3128 115.06 48.0229 114.954 48.733C114.887 49.1685 114.812 49.6039 114.765 50.0394C114.726 50.4199 114.714 50.8044 114.694 51.1849C114.651 51.9931 114.572 52.8013 114.588 53.6094C114.595 54.1665 114.304 54.5549 113.985 54.904C113.815 55.0884 113.418 55.1747 113.154 55.1355C112.681 55.061 112.224 54.8648 111.771 54.7C111.117 54.4607 110.798 53.8566 110.463 53.3348C110.23 52.966 110.226 52.4403 110.171 51.9774C110.136 51.6871 110.191 51.3889 110.203 51.0947C110.203 51.0084 110.195 50.9221 110.215 50.8397C110.435 49.8864 110.439 48.9017 110.577 47.9405C110.79 46.485 111.097 45.0413 111.361 43.5937C111.4 43.3819 111.408 43.1661 111.436 42.9542C111.503 42.4913 111.578 42.0284 111.637 41.5655C111.696 41.1221 111.759 40.6788 111.79 40.2355C111.865 39.1763 111.913 38.117 111.995 37.0578C112.062 36.1869 112.177 35.3199 112.247 34.4489C112.267 34.2292 112.2 34.0056 112.173 33.7624C111.838 33.7859 111.684 33.8958 111.562 34.139C111.33 34.6176 110.983 35.0452 111.038 35.6219C111.042 35.6808 111.026 35.7553 110.991 35.8063C110.691 36.2339 110.376 36.6537 110.089 37.0892C109.951 37.2971 109.821 37.5286 109.754 37.7679C109.592 38.321 109.474 38.886 109.336 39.447C109.32 39.5097 109.324 39.5921 109.285 39.6314C108.848 40.0629 108.879 40.6435 108.769 41.181C108.753 41.2634 108.769 41.3693 108.725 41.4321C108.174 42.2481 108.111 43.2328 107.788 44.1273C107.437 45.1041 107.189 46.1163 106.838 47.0892C106.527 47.9484 106.117 48.7683 105.783 49.6196C105.609 50.0551 105.495 50.5102 105.365 50.9613C105.318 51.1261 105.29 51.2948 105.27 51.4635C105.133 52.6129 104.396 52.7032 103.561 52.6169C102.698 52.5266 102.005 52.1304 101.508 51.4046C101.414 51.2673 101.24 51.1771 101.15 51.0359C101.004 50.8044 100.831 50.5612 100.791 50.3022C100.72 49.8472 100.783 49.3685 100.716 48.9135C100.618 48.2544 100.708 47.5914 100.63 46.9401C100.535 46.1359 100.63 45.3395 100.7 44.5549C100.783 43.6879 100.842 42.8365 100.803 41.9656C100.779 41.4203 100.901 40.8711 100.925 40.3218C100.953 39.5725 100.949 38.8232 100.957 38.0778C100.964 37.3913 101.004 36.7086 100.972 36.026C100.957 35.6769 100.815 35.3355 100.728 34.9903C100.677 34.9903 100.626 34.9864 100.574 34.9825C100.283 35.5827 99.9598 36.1672 99.7077 36.7832C99.4398 37.4305 99.2192 38.0974 99.0104 38.7683C98.841 39.3175 98.7268 39.8864 98.5731 40.4395C98.3289 41.3222 98.0649 42.201 97.8206 43.0837C97.7537 43.3269 97.7143 43.578 97.667 43.8252C97.6473 43.9272 97.6749 44.0488 97.6315 44.139C97.1864 45.0453 97.0209 46.026 96.816 46.999C96.7373 47.3717 96.5954 47.7326 96.4694 48.0974C96.0911 49.1567 95.6972 50.2081 95.3308 51.2712C95.1259 51.8715 94.992 52.4953 94.7714 53.0877C94.6571 53.3937 94.4208 53.6526 94.2474 53.939C94.0977 54.19 93.948 54.4411 93.8101 54.6961C93.5462 55.2022 93.0577 55.4572 92.4982 55.3709C92.3288 55.3434 92.1515 55.2964 91.99 55.3238C91.3439 55.4415 90.7884 55.2101 90.2921 54.8648C89.4175 54.2489 88.6217 53.5506 88.1528 52.5502C87.9204 52.048 87.5461 51.6086 87.4949 51.0319C86.7228 50.0041 86.9394 48.8154 86.9434 47.6659C86.9434 47.3481 86.9631 47.3481 86.6125 46.9401C86.4115 47.2304 86.2264 47.5011 86.0373 47.7757C85.7221 48.2308 85.4148 48.6898 85.0878 49.1371C84.4299 50.0315 83.7208 50.8907 83.1141 51.8205C82.5074 52.7424 81.6604 53.4329 80.9394 54.241C80.4076 54.8374 79.6945 55.2689 79.0996 55.8142C78.6072 56.2654 78.0005 56.3478 77.4174 56.3164C76.7556 56.2811 76.0819 56.2301 75.4831 55.775C74.9985 55.4062 74.3957 55.1747 73.7299 55.2728C72.7332 55.4219 72.0477 54.8962 71.5119 54.1626C71.051 53.527 70.6492 52.8405 70.2631 52.1539C70.1134 51.8833 70.0543 51.5576 69.9952 51.2477C69.7824 50.1885 69.5894 49.1292 69.3885 48.0661C69.3097 47.6463 69.2073 47.2304 69.1482 46.8067C68.963 45.5435 68.7581 44.2842 68.6203 43.017C68.506 41.9342 68.4706 40.8475 68.4036 39.7608C68.3524 38.9134 68.2499 38.0621 68.2815 37.2186C68.3012 36.6419 68.3287 36.077 68.1948 35.4846C67.8796 35.5121 67.722 35.7592 67.6314 35.9593C67.4108 36.4379 67.2572 36.9479 67.0956 37.4501C67.0326 37.6463 67.0759 37.8777 66.8002 37.968C66.7214 37.9915 66.6623 38.1249 66.6268 38.219C66.3077 39.1017 66.028 40.0001 65.6734 40.8711C65.1652 42.1147 64.9013 43.4289 64.3773 44.6765C63.9873 45.5984 63.5539 46.536 63.4279 47.5757C63.3569 48.1524 63.0615 48.7016 62.8881 49.2705C62.8015 49.5568 62.7857 49.8628 62.6912 50.1453C62.5414 50.6082 62.3642 51.0633 62.1908 51.5184C61.7575 52.6286 61.3083 53.731 60.8907 54.8491C60.7489 55.2257 60.2644 55.4023 60.3156 55.877C60.0043 56.0457 59.7522 56.3281 59.3425 56.2889C58.8737 56.2418 58.4009 56.2261 57.9321 56.1987C57.8257 56.1908 57.6918 56.2301 57.6169 56.183C56.9354 55.7201 56.1081 55.4494 55.6944 54.6451C55.462 54.1979 55.1507 53.8095 54.9932 53.3073C54.7056 52.405 54.5322 51.4909 54.3904 50.5612C54.3195 50.1061 54.2446 49.6471 54.1698 49.192C54.1225 49.192 54.0792 49.1881 54.0319 49.1841C53.8191 49.6314 53.5985 50.0786 53.3937 50.5298C53.2794 50.7809 53.1967 51.0437 53.0943 51.3026C52.9288 51.7185 52.7633 52.1343 52.5861 52.5423C52.4679 52.813 52.326 53.0759 52.1921 53.3427C52.1448 53.4368 52.0739 53.5231 52.0463 53.6251C51.6169 55.1787 50.4981 56.3556 49.7771 57.7522C49.4344 58.4192 48.8277 58.9488 48.3943 59.5765C47.7797 60.471 46.8263 60.8633 45.9124 61.2987C45.5499 61.4713 45.0693 61.5027 44.6596 61.4635C43.651 61.3733 42.6937 61.0594 41.7797 60.6279C41.6852 60.5847 41.5827 60.5416 41.5158 60.471C40.9327 59.8472 40.3536 59.2195 39.7823 58.5839C39.4081 58.1681 39.152 57.6934 38.9786 57.152C38.8368 56.7126 38.5098 56.3321 38.3404 55.8966C38.0647 55.1787 37.8243 54.449 37.6274 53.7075C37.2649 52.3462 36.997 50.9652 36.7685 49.5725C36.6306 48.7369 36.6582 47.8777 36.3667 47.0578C36.2367 46.689 36.2682 46.2457 36.3036 45.8456C36.414 44.5509 36.5321 43.2642 36.3352 41.9617C36.284 41.6165 36.3824 41.2359 36.4573 40.8828C36.5479 40.4356 36.6267 40.0197 36.41 39.5686C36.3155 39.3685 36.414 39.0743 36.4337 38.8193C36.4534 38.5643 36.5085 38.3132 36.5085 38.0621C36.5006 37.4658 36.3824 36.8616 36.4691 36.281C36.6582 34.9903 36.6503 33.6996 36.6897 32.405C36.7134 31.5772 36.8276 30.7494 36.8434 29.9216C36.867 28.7722 37.0679 27.6345 36.9931 26.4772C36.9537 25.8926 37.0916 25.2963 37.1546 24.6372C36.083 24.8726 35.0509 24.9432 34.0738 25.3551C33.152 25.7435 32.1946 26.0378 31.1861 26.1515C30.7882 26.1947 30.41 26.3948 30.02 26.5085C29.6024 26.6341 29.2163 26.8734 28.7435 26.8224C28.5899 26.8067 28.4205 26.9165 28.259 26.9754C28.1171 27.0264 27.9832 27.1245 27.8414 27.1362C26.8525 27.2186 25.9622 27.6776 24.993 27.8463C24.4139 27.9483 23.8545 28.1798 23.2793 28.321C23.0114 28.3877 22.7238 28.3759 22.452 28.4191C21.4198 28.5799 20.3876 28.7526 19.3555 28.9095C18.6778 29.0115 18.0002 29.1135 17.3187 29.1802C16.6568 29.2429 15.991 29.2822 15.3252 29.2783C15.0692 29.2783 14.8446 29.2586 14.5846 29.3528C14.364 29.4313 14.0843 29.3253 13.8321 29.3332C13.4106 29.3449 12.9851 29.3763 12.5636 29.4156C11.5432 29.5058 10.5662 29.2429 9.57734 29.086C8.92337 28.9801 8.28121 28.8114 7.63511 28.6663C7.48935 28.6349 7.3357 28.6035 7.21358 28.5329C6.38232 28.0464 5.51954 27.6031 4.74344 27.0421C4.02249 26.5203 3.30548 25.9868 2.75 25.2453C2.23785 24.5627 1.73358 23.8879 1.31204 23.1425C1.06385 22.7031 0.701403 22.3226 0.405932 21.9106C-0.165311 21.1143 -0.121976 20.0119 0.551697 19.3175C0.677765 19.1841 0.981115 19.1919 1.20567 19.1919C1.45781 19.1919 1.706 19.2586 1.95814 19.29C2.3127 19.3371 2.63575 19.4587 2.85243 19.749C3.45125 20.5532 4.09341 21.3339 4.61343 22.1892C5.1374 23.0523 5.79926 23.7584 6.62657 24.2998C7.06387 24.5862 7.56026 24.8255 8.06453 24.9589C8.78548 25.1472 9.53007 25.2728 10.2747 25.3198C10.8735 25.3591 11.4841 25.2414 12.0869 25.1982C12.469 25.1708 12.8512 25.1551 13.2333 25.1394C13.5524 25.1276 13.8755 25.108 14.1946 25.1198C14.7934 25.1394 15.3883 25.1747 15.9871 25.2061C16.0501 25.2061 16.1132 25.2414 16.1722 25.2374C17.2793 25.1119 18.3902 25.0217 19.4894 24.8412C20.0646 24.7471 20.6043 24.4646 21.1716 24.3273C21.8965 24.1547 22.5741 23.8055 23.3502 23.8055C24.1618 23.8055 24.997 23.8251 25.7691 23.5387C26.3483 23.323 26.9156 23.2288 27.5262 23.2484C27.7547 23.2563 28.0187 23.0915 28.2117 22.9385C28.6057 22.6286 29.039 22.5148 29.5275 22.4952C29.823 22.4834 30.1145 22.3932 30.41 22.35C30.6621 22.3147 30.9182 22.2912 31.1743 22.2637C31.4658 22.2363 31.7613 22.2206 32.0568 22.1813C32.3325 22.146 32.5413 22.0126 32.6201 21.7223C32.691 21.4673 32.8762 21.3536 33.1244 21.2869C33.6602 21.1378 34.1841 20.9377 34.7239 20.8004C34.9642 20.7376 35.236 20.7376 35.4882 20.769C36.6858 20.9142 37.7258 19.953 37.6392 18.7604C37.6037 18.2465 37.6589 17.7718 37.8756 17.2735C38.1198 16.7086 38.3325 16.0887 38.1671 15.4297C38.1434 15.3316 38.1356 15.206 38.175 15.1158C38.368 14.6646 38.4626 14.1978 38.5453 13.7113C38.6556 13.0876 38.8841 12.4873 39.0574 11.8792C39.1047 11.7145 39.152 11.5458 39.1599 11.3771C39.2111 10.5336 39.5105 9.77645 39.8966 9.0389C39.9872 8.86236 40.0148 8.61913 39.9832 8.41905C39.869 7.65012 40.1526 7.00673 40.5663 6.39472C40.6687 6.24172 40.7239 6.05341 40.7869 5.8808C40.8381 5.74349 40.8539 5.59441 40.913 5.46102C41.2124 4.76663 41.5354 4.08008 41.827 3.38569C42.0318 2.8953 42.1815 2.37745 42.3943 1.89099C42.5716 1.48298 42.7961 1.09067 43.0207 0.706205C43.1625 0.462972 43.3634 0.270739 43.6747 0.239354C43.7771 0.227585 43.915 0.215816 43.9701 0.149123C44.1592 -0.0744949 44.368 0.0275061 44.6005 0.0157367C45.6051 -0.0313407 46.066 0.694436 46.5821 1.32998C46.6963 1.47121 46.6963 1.78506 46.6333 1.98122C46.5269 2.32645 46.3654 2.66384 46.1645 2.96592C45.8966 3.37392 45.7154 3.78585 45.869 4.31155C45.416 4.48417 45.2032 4.83725 45.0417 5.24917C44.9196 5.56302 44.7029 5.83764 44.5768 6.14757C44.4744 6.39865 44.4586 6.68896 44.3759 6.94788C44.175 7.57558 43.9426 8.19543 43.7456 8.82313C43.5919 9.31352 43.4895 9.81568 43.3319 10.3061C43.0601 11.1731 42.8789 12.0675 42.6307 12.9385C42.2525 14.2606 42.154 15.6258 41.8743 16.9636C41.8191 17.2343 41.7364 17.5011 41.7009 17.7757C41.6615 18.0895 41.7876 18.2543 42.0831 18.2111C42.9025 18.0935 43.7416 18.1091 44.5335 17.8071C44.7659 17.7168 45.0338 17.6776 45.286 17.6815C45.5735 17.6854 45.8414 17.7129 46.0699 17.4893C46.1172 17.4422 46.2551 17.4265 46.3063 17.4579C46.653 17.6972 46.9209 17.4069 47.1848 17.3049C47.6064 17.148 47.9413 16.7831 48.4179 16.7321C49.0286 15.9789 50.0253 16.1123 50.8014 15.72C51.2663 15.4846 51.7627 15.3002 52.326 15.2923C52.7121 15.2845 53.0903 15.0452 53.4725 14.9118C53.63 14.8569 53.7995 14.7313 53.9492 14.7549C54.9577 14.904 55.8244 14.3861 56.7384 14.1468C57.2899 14.0016 57.8257 13.8329 58.4009 13.7702C58.7988 13.727 59.0273 13.4563 59.0234 13.0836C59.0076 12.1617 59.244 11.279 59.4449 10.3924C59.5552 9.89806 59.7286 9.41552 59.6301 8.89767C59.6025 8.75252 59.6104 8.59167 59.6537 8.45044C59.8074 7.94828 59.9886 7.45789 60.1462 6.95573C60.2171 6.73211 60.3313 6.48495 60.2919 6.27703C60.1816 5.70033 60.2683 5.14325 60.3589 4.58224C60.4338 4.0997 60.5992 3.71524 61.1783 3.66816C61.3083 3.65639 61.4305 3.53477 61.4856 3.50339C61.9781 3.61323 62.4036 3.76231 62.8409 3.79762C63.4121 3.84077 63.6957 4.14678 64.0424 4.57832C64.59 5.26879 64.59 5.9671 64.4915 6.74388C64.4246 7.26958 64.2709 7.79527 64.46 8.32882C64.4955 8.43474 64.4167 8.57598 64.397 8.70152C64.2276 9.80391 64.4561 10.8906 64.4522 12.0283C65.7286 11.9342 66.8868 11.7851 67.9939 11.3496C68.2815 11.2358 68.6281 11.2319 68.8291 10.9416C69.4121 11.0789 69.944 10.7729 70.5034 10.7572C71.3425 10.7337 72.162 10.6905 72.9341 10.3178C73.1745 10.2041 73.4581 10.1452 73.726 10.1217C74.4903 10.0628 75.2585 10.0432 76.0267 10.0001C76.1331 9.99222 76.2552 9.9726 76.334 9.90983C76.7556 9.59206 77.2559 9.61952 77.6814 9.74506C78.3038 9.93337 78.8041 9.59206 79.3636 9.53321C79.6787 9.50183 79.99 9.42337 80.3051 9.37237C80.4312 9.35275 80.5652 9.3606 80.6873 9.32921C81.2191 9.20367 81.751 9.07029 82.2828 8.94083C82.3459 8.92513 82.4089 8.8859 82.468 8.88982C83.1929 8.90944 83.9178 8.93298 84.6427 8.96044C84.7451 8.96044 84.8554 9.01144 84.9539 8.99575C85.9782 8.80744 86.9985 8.61128 88.0189 8.41905C88.0819 8.40728 88.1647 8.38766 88.2041 8.41905C88.602 8.72898 88.9605 8.50144 89.3505 8.37982C89.6656 8.28174 90.0242 8.32097 90.363 8.28174C90.95 8.21113 91.533 8.11305 92.12 8.05028C92.3761 8.02282 92.6361 8.05812 92.8922 8.05028C93.6053 8.01889 94.3262 8.02282 95.0314 7.93258C95.7602 7.84235 96.4772 7.84628 97.1942 7.98358C97.2376 7.99143 97.277 8.00712 97.3203 8.00712C98.0019 8.01497 98.6874 7.98751 99.365 8.03851C100.086 8.09343 100.811 8.09735 101.52 8.16797C102.201 8.23859 102.887 8.24643 103.557 8.34843C104.234 8.45436 104.904 8.39159 105.578 8.43867C105.98 8.46613 106.275 8.62698 106.586 8.88198C107.146 9.34491 107.512 9.84706 107.63 10.6042C107.713 11.1221 107.737 11.7105 108.119 12.1656C108.174 12.2323 108.127 12.4167 108.079 12.5226C107.938 12.8326 107.792 13.1425 107.611 13.4328C107.354 13.8526 106.98 14.0252 106.468 13.9742C105.913 13.9153 105.404 13.8094 104.92 13.4956C104.573 13.2719 104.132 13.1699 103.718 13.0679C102.402 12.7345 101.047 12.6599 99.6998 12.5854C98.3998 12.5109 97.0918 12.401 95.7996 12.4991C94.2829 12.6129 92.7701 12.6521 91.2533 12.6796C90.7412 12.6874 90.233 12.7502 89.7208 12.7933C88.8462 12.8639 87.9677 12.9189 87.097 13.0248C86.1436 13.1386 85.2021 13.3269 84.2526 13.4367C83.6144 13.5113 82.9644 13.4995 82.3183 13.5426C81.9361 13.5701 81.554 13.6172 81.1758 13.6721C80.4115 13.778 79.6512 13.88 78.8908 14.0016C77.0786 14.292 75.2664 14.598 73.4542 14.8883C72.5047 15.0413 71.5434 15.1197 70.6098 15.3316C69.6327 15.5552 68.6084 15.567 67.6826 16.0181C67.4975 16.1084 67.265 16.1123 67.0523 16.1201C66.0989 16.1515 65.2322 16.5203 64.3458 16.8067C64.2158 16.8498 64.07 17.0264 64.0424 17.1637C63.9558 17.5756 63.9006 17.9993 63.8691 18.423C63.8258 18.9526 63.8455 19.4862 63.7864 20.0119C63.7076 20.7062 63.617 21.4046 63.4633 22.0833C63.0575 23.8801 62.6439 25.6729 62.1751 27.454C61.9663 28.2582 61.6235 29.0272 61.3399 29.8118C61.0247 30.6749 60.7056 31.534 60.3904 32.3971C60.3037 32.6364 60.2053 32.8718 60.1304 33.1111C59.9649 33.6643 59.8507 34.2175 59.8783 34.8099C59.894 35.2218 59.7286 35.6376 59.6576 36.0574C59.5749 36.5399 59.5001 37.0264 59.441 37.5129C59.3346 38.423 59.2479 39.3332 59.1416 40.2434C59.0982 40.6239 59.0234 41.0044 58.9761 41.385C58.9209 41.8283 58.8894 42.2795 58.8264 42.7228C58.7673 43.1425 58.6767 43.5584 58.6058 43.9742C58.5782 44.1429 58.5427 44.3116 58.5427 44.4803C58.5427 45.2963 58.5546 46.1084 58.5546 46.9244C58.5546 47.1206 58.5349 47.3167 58.8579 47.4148C58.9485 47.1716 59.0431 46.9244 59.1376 46.6773C59.2322 46.438 59.3464 46.2065 59.4213 45.9593C59.5946 45.3905 59.6419 44.7863 60.0359 44.2842C60.154 44.1351 60.1343 43.8762 60.1737 43.6643C60.3983 42.3815 60.7135 41.1339 61.4699 40.0394C61.5487 39.9217 61.6196 39.7608 61.6078 39.6235C61.5723 39.239 61.8599 39.0076 61.982 38.7055C62.0963 38.4309 61.9544 38.0425 62.0805 37.7836C62.3051 37.3324 62.6242 36.9283 62.9512 36.5399C63.0969 36.3673 63.1836 36.2143 63.2309 35.9946C63.3136 35.6219 63.4712 35.2689 63.5657 34.9001C63.6445 34.598 63.7509 34.2763 63.7233 33.9781C63.6918 33.6604 63.7233 33.4525 63.9991 33.2681C64.2867 33.0758 64.4443 32.7934 64.2946 32.4324C64.1764 32.1461 64.3655 31.9617 64.5309 31.8204C65.0234 31.3967 65.441 30.9181 65.7877 30.3767C66.0004 30.0433 66.1501 29.6627 66.3432 29.3136C66.5598 28.9252 66.808 28.5486 67.0287 28.1602C67.4147 27.4736 67.7732 26.7753 68.1672 26.0927C68.5178 25.4885 68.8763 24.8883 69.2782 24.3194C69.5146 23.986 69.8494 23.731 70.3143 23.8055C70.4167 23.8212 70.5546 23.8408 70.6019 23.9075C70.8264 24.2331 71.1731 24.2645 71.508 24.3273C71.8192 24.3861 72.0162 24.5784 72.2368 24.8059C73.206 25.8141 73.2651 27.0499 73.1863 28.321C73.0878 29.8785 72.9263 31.432 72.8514 32.9895C72.7805 34.547 72.7805 36.1084 72.7529 37.6698C72.749 37.968 72.8553 38.2897 72.7765 38.5603C72.5362 39.3764 72.7923 40.1727 72.7884 40.977C72.7844 41.8048 72.749 42.6365 72.8238 43.4603C72.8869 44.1704 73.0799 44.8726 73.2138 45.5749C73.2729 45.877 73.3242 46.183 73.399 46.5753C73.7181 46.2614 73.8324 45.9593 73.789 45.6416C73.7221 45.159 73.7969 44.7432 74.0096 44.292C74.2027 43.8801 74.1987 43.374 74.2933 42.915C74.3918 42.4403 74.4666 41.9499 74.636 41.4988C74.7661 41.1535 75.0339 40.8632 75.227 40.5415C75.2979 40.4199 75.3412 40.2747 75.3767 40.1335C75.4909 39.6824 75.5934 39.2234 75.7076 38.7722C75.7825 38.4858 75.8573 38.1994 75.9676 37.9248C76.0425 37.7326 76.2592 37.5678 76.267 37.3834C76.2867 36.8185 76.6492 36.4772 76.9841 36.1045C77.0234 36.0613 77.051 35.9907 77.055 35.9319C77.1062 35.2728 77.638 34.8922 77.9532 34.3862C78.2644 33.8879 78.6938 33.5505 79.1981 33.2485C79.5212 33.0523 79.7851 32.6717 79.9466 32.3187C80.1397 31.895 80.4509 31.589 80.7503 31.2673C81.2861 30.6906 81.877 30.1649 82.4247 29.596C83.0235 28.9723 83.6774 28.4112 84.3629 27.8895C84.5442 27.7522 84.686 27.5521 84.8239 27.3677C85.1272 26.9636 85.6945 26.8263 85.8797 26.3085C85.8876 26.2888 85.9033 26.2653 85.923 26.2614C86.5691 26.0848 86.837 25.4061 87.3964 25.1354C88.2159 24.7431 89.0747 24.6254 89.9493 25.0295C90.1542 25.1237 90.3827 25.1668 90.5993 25.2296C90.6584 25.2453 90.749 25.2296 90.7806 25.2688C91.1312 25.6533 91.5212 26.0142 91.8049 26.4418C92.0609 26.8302 92.2382 27.2696 92.6913 27.4775C93.034 27.6345 93.3255 27.8149 93.4004 28.2269C93.4162 28.3132 93.5343 28.3877 93.6171 28.4544C93.9047 28.678 93.9992 28.9605 94.0662 29.3253C94.3026 30.6082 94.0426 31.8244 93.7195 33.0523C93.5462 33.7075 93.4595 34.3862 93.298 35.0492C93.1995 35.4572 93.0064 35.8416 92.904 36.2496C92.6519 37.2618 92.4273 38.2779 92.1988 39.294C92.0531 39.9334 91.9073 40.5768 91.7773 41.2202C91.6788 41.7224 91.6 42.2324 91.5212 42.7385C91.4779 43.0092 91.4621 43.2838 91.4148 43.5545C91.2179 44.7079 90.9972 45.8573 91.0209 47.0382C91.0327 47.611 90.9933 48.1838 91.0051 48.7565C91.0051 48.9566 91.0918 49.1567 91.1391 49.3607C91.5212 49.3293 91.6158 49.0978 91.6985 48.8468C91.9427 48.1171 92.1673 47.3834 92.451 46.6694C92.6164 46.2536 92.7858 45.8495 92.8213 45.3944C92.8331 45.214 92.9316 45.0139 93.0458 44.8726C93.4004 44.4489 93.3768 43.9625 93.3334 43.4682C93.3216 43.323 93.2704 43.1622 93.3137 43.0327C93.6368 42.0676 93.9638 41.1025 94.3183 40.1492C94.5389 39.5529 94.8187 38.9801 95.0393 38.3838C95.1969 37.968 95.3032 37.5325 95.4254 37.1009C95.4648 36.9597 95.4687 36.8028 95.5238 36.6694C95.8114 35.9672 96.1306 35.2767 96.3984 34.5666C96.5088 34.2763 96.5836 33.9468 96.5639 33.6408C96.5324 33.1974 96.6821 32.8444 96.9264 32.507C97.2494 32.0637 97.5567 31.6007 97.9191 31.1888C98.4549 30.5807 98.6361 29.8 99.0025 29.1135C99.0419 29.0389 99.0459 28.9252 99.1089 28.882C99.7471 28.423 99.8771 27.6305 100.342 27.0539C100.456 26.9087 100.511 26.7204 100.61 26.5556C100.76 26.3045 100.842 26.0064 101.189 25.9201C101.311 25.8887 101.421 25.7553 101.512 25.6455C101.878 25.2021 102.28 25.1551 102.635 25.5748C102.879 25.8651 103.202 25.9279 103.521 26.0456C103.695 26.1123 103.876 26.1908 104.002 26.3163C104.226 26.5399 104.396 26.8263 104.62 27.0499C104.963 27.3912 104.971 27.8032 104.963 28.2386C104.928 29.7804 104.833 31.3222 104.9 32.8601C104.936 33.6839 104.936 34.5117 104.975 35.3395C105.03 36.3791 105.062 37.4226 105.125 38.4623C105.136 38.6506 105.247 38.831 105.318 39.0272C105.96 38.8193 106.236 38.3289 106.334 37.8581C106.547 36.842 107.158 35.9907 107.394 34.9982C107.441 34.802 107.587 34.6137 107.717 34.4489C108.131 33.9271 108.194 33.272 108.422 32.6796C108.71 31.9342 109.234 31.3222 109.49 30.5376C109.742 29.7647 110.297 29.0939 110.719 28.3799C110.75 28.3249 110.766 28.2543 110.81 28.2112C111.724 27.3245 111.948 26.1005 112.389 24.9864C112.779 24.0017 113.953 23.6957 114.718 24.4293C114.796 24.5038 114.856 24.6019 114.942 24.6568C115.876 25.2335 116.187 26.1515 116.376 27.1598C116.538 28.0189 116.392 28.8663 116.368 29.7176C116.349 30.5258 116.25 31.334 116.246 32.1421C116.246 32.9307 116.321 33.7192 116.364 34.5078C116.364 34.5705 116.416 34.6451 116.392 34.6961C115.99 35.618 116.506 36.5909 116.219 37.5325C116.085 37.968 116.144 38.4623 116.144 38.933C116.144 39.035 116.246 39.1959 116.333 39.2234C116.427 39.2508 116.609 39.188 116.668 39.1057C116.869 38.831 117.093 38.5486 117.204 38.2347C117.373 37.7443 117.629 37.3677 118.102 37.1402C118.232 37.0774 118.354 36.9754 118.452 36.8656C118.783 36.5125 119.197 36.3477 119.67 36.383C119.953 36.4066 120.166 36.3006 120.237 36.0692C120.371 35.6455 120.458 35.2061 120.529 34.7706C120.599 34.3312 120.54 33.8487 120.706 33.4485C120.859 33.068 120.836 32.7071 120.895 32.3344C121.001 31.6753 121.183 31.028 121.336 30.3767C121.427 29.9844 121.521 29.5882 121.62 29.1959C121.671 28.9958 121.742 28.7996 121.793 28.5956C121.833 28.4348 121.856 28.2661 121.872 28.1013C121.896 27.8699 121.833 27.5992 121.931 27.4148C122.329 26.6615 122.274 25.8141 122.475 25.0217C122.632 24.3901 122.62 23.7153 122.995 23.1386C123.018 23.1033 123.034 23.0523 123.026 23.017C122.908 22.3814 123.306 21.8753 123.448 21.3065C123.534 20.9534 123.57 20.5886 123.664 20.2394C123.822 19.6627 124.019 19.0978 124.177 18.525C124.259 18.219 124.303 17.9012 124.362 17.5874C124.37 17.5442 124.362 17.4971 124.374 17.4618C124.61 16.7792 124.858 16.0966 125.087 15.414C125.146 15.2413 125.173 15.053 125.201 14.8726C125.24 14.5823 125.264 14.292 125.284 14.0958C125.756 13.9467 126.158 13.8408 126.54 13.6956C127.08 13.4877 127.553 13.5897 127.888 14.0526C128.152 14.4175 128.443 14.7745 128.621 15.1786C128.77 15.5199 128.825 15.924 128.817 16.2967C128.81 16.6968 128.715 17.1048 128.601 17.4932C128.329 18.4073 128.002 19.3096 127.734 20.2237C127.529 20.9181 127.36 21.6203 127.202 22.3265C126.82 24.0134 126.458 25.7082 126.079 27.3952C125.981 27.8306 125.835 28.2504 125.737 28.6859C125.615 29.2469 125.532 29.8196 125.41 30.3846C125.236 31.1692 125.032 31.9499 124.858 32.7384C124.819 32.9189 124.854 33.1151 124.854 33.3308C125.142 33.3779 125.295 33.1661 125.425 32.9934C126.087 32.1304 126.789 31.2947 127.301 30.3179C127.592 29.7608 127.939 29.2116 128.53 28.8859C128.601 28.8467 128.652 28.7643 128.695 28.6937C129.148 27.9836 129.633 27.3049 130.22 26.6929C130.496 26.4065 130.677 26.026 130.913 25.6925C131.335 25.1001 131.772 24.5195 132.19 23.9232C132.347 23.6996 132.458 23.4407 132.588 23.1974C132.678 23.0287 132.737 22.8287 132.863 22.6913C133.73 21.7263 134.286 20.5729 134.888 19.4469C135.282 18.7133 135.708 17.9954 136.074 17.25C136.271 16.8498 136.429 16.4183 136.508 15.9789C136.622 15.3551 136.953 14.8804 137.394 14.4685C137.496 14.3743 137.709 14.3469 137.859 14.3704C138.087 14.4057 138.3 14.5116 138.525 14.5823C139.51 14.904 139.829 15.7317 140.061 16.6184C140.104 16.7831 140.148 16.9479 140.164 17.1166C140.203 17.5756 140.309 18.0189 140.093 18.4936C139.872 18.9722 139.868 19.5568 139.616 20.0119C139.194 20.7729 138.958 21.6243 138.395 22.3226C137.78 23.0837 137.256 23.9193 136.689 24.7196C136.504 24.9785 136.303 25.2296 136.106 25.4807C136.039 25.567 135.925 25.6337 135.905 25.7278C135.759 26.3673 135.196 26.7165 134.865 27.2225C134.526 27.7404 134.049 28.1798 133.774 28.7251C133.324 29.6196 132.635 30.3257 132.02 31.075C130.772 32.5972 129.649 34.2057 128.506 35.8024C128.037 36.4615 127.49 37.0617 126.986 37.6973C126.694 38.066 126.418 38.4466 126.131 38.8271L126.127 38.8232ZM51.6248 43.9036C51.0141 43.2956 51.7154 42.8915 51.7469 42.3932C52.2 42.1343 52.3024 41.6086 52.5309 41.2163C52.9603 40.4748 53.2046 39.6196 53.504 38.8036C53.6064 38.529 53.5788 38.1798 53.7364 37.9562C54.0279 37.5482 54.1304 37.1088 54.1895 36.638C54.2052 36.5125 54.2171 36.3399 54.2998 36.2771C54.6859 35.975 54.7489 35.5042 54.9222 35.108C55.2138 34.4489 55.4265 33.7545 55.6235 33.0641C55.7338 32.6757 55.6589 32.2127 55.8441 31.8754C56.0765 31.4517 56.0647 31.075 55.9899 30.6474C55.9662 30.5101 55.9623 30.3179 56.0411 30.2237C56.2932 29.9177 56.2381 29.5843 56.2144 29.2429C56.2026 29.0546 56.1908 28.8585 56.2262 28.6702C56.2853 28.3328 56.4035 28.0072 56.4548 27.6698C56.502 27.3638 56.7778 27.0735 56.5887 26.7518C56.372 26.383 56.7345 26.1084 56.7108 25.8024C56.6675 25.2061 56.8369 24.6686 57.0221 24.1194C57.0969 23.8997 57.093 23.6564 57.1245 23.425C57.1718 23.0915 57.2112 22.758 57.2584 22.4207C57.286 22.2323 57.3175 22.044 57.349 21.8557C57.4909 21.0201 57.3569 20.1335 57.8179 19.3528C57.8691 19.2625 57.8376 19.1095 57.81 18.9918C57.7666 18.7957 57.6997 18.6035 57.6406 18.4034C57.1954 18.4858 56.7699 18.5289 56.3602 18.6427C55.3714 18.9134 54.3943 19.2194 53.4094 19.5019C53.0588 19.5999 52.6924 19.6392 52.3457 19.7529C51.2072 20.1217 50.0726 20.4983 48.9459 20.8985C48.0634 21.2084 47.1179 21.3379 46.2906 21.8126C46.0975 21.9224 45.8375 21.9303 45.609 21.9734C45.4396 22.0048 45.2584 21.9813 45.1008 22.0362C44.435 22.2716 43.7771 22.5305 43.1113 22.7698C42.5913 22.9542 42.0752 23.1582 41.5394 23.2877C40.976 23.421 40.9012 23.4485 40.8618 24.0095C40.846 24.241 40.8697 24.4803 40.8736 24.7157C40.8815 25.0766 40.913 25.4375 40.8894 25.7985C40.8381 26.587 40.7436 27.3677 40.6963 28.1562C40.6215 29.4352 40.7199 30.718 40.519 31.997C40.4402 32.4991 40.4678 33.017 40.456 33.527C40.4402 34.2763 40.456 35.0217 40.4245 35.771C40.4008 36.3673 40.2984 36.9636 40.2984 37.556C40.2984 38.2975 40.3654 39.039 40.393 39.7804C40.4008 39.9687 40.3693 40.161 40.3693 40.3532C40.3693 40.9848 40.3811 41.6204 40.3851 42.252C40.3851 42.5462 40.3851 42.8444 40.3772 43.1386C40.3772 43.3309 40.3536 43.5231 40.3614 43.7114C40.4048 44.4999 40.4678 45.2885 40.5033 46.077C40.5348 46.795 40.456 47.5051 40.653 48.2269C40.8697 49.0194 40.8815 49.8668 41.043 50.6749C41.3857 52.3972 41.827 54.0998 42.4219 55.7514C42.5558 56.1281 42.7764 56.4851 43.0049 56.8146C43.2571 57.1755 43.3674 57.1638 43.7456 56.9284C44.6044 56.4027 45.219 55.6455 45.7784 54.8334C45.9321 54.6098 46.2472 54.4372 46.2866 54.2057C46.3615 53.735 46.6885 53.4643 46.9248 53.119C47.1179 52.8366 47.3227 52.5541 47.4567 52.2403C47.5946 51.9264 47.9885 51.7263 47.8664 51.2909C47.8506 51.232 47.9728 51.1104 48.0594 51.0555C48.7371 50.6082 48.7292 49.7608 49.1744 49.1763C49.2059 49.1331 49.2098 49.0351 49.1783 48.9919C48.9262 48.5996 49.2019 48.3564 49.4186 48.0935C49.5565 47.9287 49.6944 47.764 49.8165 47.5874C50.0844 47.1991 50.3838 46.8185 50.1986 46.2889C50.175 46.2183 50.1829 46.0888 50.2262 46.0496C50.5729 45.7475 50.4626 45.1708 50.9117 44.9315C50.9708 44.9001 51.026 44.7824 51.022 44.7118C50.9984 44.3313 51.2466 44.1351 51.6169 43.9076L51.6248 43.9036ZM76.9959 51.4282C77.5041 51.5459 77.512 51.5537 77.6498 51.3772C77.9729 50.9535 78.2841 50.5259 78.6032 50.0982C79.009 49.5529 79.3518 48.9291 79.8481 48.4819C80.2736 48.1014 80.6912 47.7522 81.0261 47.2697C81.684 46.3242 82.4325 45.4415 83.1062 44.5078C83.4883 43.9782 83.8035 43.4015 84.1344 42.8365C84.5284 42.1578 84.9027 41.4635 85.2848 40.7808C85.3045 40.7455 85.3321 40.6984 85.3675 40.6828C85.7654 40.5141 85.8245 40.1374 85.9979 39.8001C86.5021 38.8193 86.7503 37.7051 87.5067 36.8499C87.6249 36.7165 87.7234 36.4811 87.6919 36.3163C87.621 35.9122 87.8652 35.6808 88.0662 35.4101C88.1647 35.2767 88.3262 35.1237 88.3144 34.9903C88.2947 34.7039 88.4168 34.5078 88.5468 34.2802C88.6807 34.0409 88.7556 33.7702 88.8344 33.5074C88.992 32.9974 89.0708 32.4521 89.3071 31.9852C89.6932 31.2202 89.7641 30.412 89.8154 29.5921C89.8508 29.0233 89.5947 28.8114 89.0511 28.9526C88.8265 29.0115 88.5941 29.1096 88.4207 29.2586C87.4437 30.0864 86.4824 30.9338 85.5212 31.7734C85.2375 32.0205 84.9302 32.2481 84.686 32.5305C83.969 33.3504 83.3189 34.2332 82.5704 35.0217C81.8258 35.8024 81.2664 36.6929 80.7346 37.6149C80.3839 38.223 80.0136 38.8232 79.6512 39.4274C79.5842 39.5372 79.5133 39.6471 79.466 39.7647C79.0799 40.7612 78.6978 41.7616 78.3156 42.762C78.1935 43.0798 78.0438 43.3936 77.965 43.7192C77.8311 44.2999 77.7247 44.8883 77.642 45.4807C77.5868 45.8809 77.2086 46.1477 77.2559 46.5988C77.2953 46.995 77.2165 47.407 77.181 47.8111C77.0786 48.9998 76.8186 50.1806 77.0038 51.4321L76.9959 51.4282ZM65.8231 12.2441C65.8231 12.2872 65.8231 12.3343 65.8192 12.3775H66.2013C66.2013 12.3382 66.2013 12.3029 66.2053 12.2637C66.0792 12.2559 65.9492 12.2519 65.8231 12.2441Z" fill="#017CC2"/>
<path d="M123.759 63.5349C124.307 63.3975 124.74 63.4956 125.209 63.7624C125.611 63.9899 126.048 64.1312 126.398 64.4686C127.226 65.261 127.616 66.1712 127.269 67.2971C127.076 67.9209 127.017 68.5918 126.58 69.1449C126.41 69.3607 126.406 69.7059 126.324 69.9884C126.008 71.0751 125.662 72.1539 125.378 73.2485C125.173 74.0527 125.055 74.8766 124.89 75.6926C124.834 75.9594 124.763 76.2222 124.697 76.4811C124.657 76.6263 124.586 76.7675 124.574 76.9127C124.452 78.6781 124.322 80.4435 124.236 82.2128C124.2 82.9347 124.243 83.6683 124.303 84.3901C124.338 84.8335 124.476 85.2689 124.559 85.7083C124.653 86.2105 124.641 86.7519 124.842 87.203C125.209 88.0386 125.677 88.8272 126.379 89.451C126.97 89.9806 127.695 90.2395 128.408 90.522C128.577 90.5887 128.786 90.5965 128.971 90.573C129.983 90.4514 130.945 90.1689 131.843 89.6824C132.347 89.4078 132.836 89.141 133.249 88.7016C133.679 88.2426 134.27 87.9366 134.774 87.5483C135.247 87.1795 135.7 86.7872 136.165 86.4066C136.279 86.3125 136.389 86.1987 136.523 86.1399C137.666 85.6534 138.351 85.9594 138.915 87.1167C139.092 87.4816 139.242 87.8033 139.092 88.2034C139.068 88.2623 139.06 88.3329 139.072 88.3956C139.328 89.706 138.469 90.4396 137.63 91.1889C137.331 91.4557 137.051 91.7538 136.76 92.0324C136.653 92.1344 136.539 92.2285 136.421 92.3227C136.137 92.5463 135.861 92.7778 135.562 92.9818C135.184 93.2407 134.884 93.5742 134.384 93.6997C133.754 93.8527 133.186 94.2607 132.556 94.4451C131.642 94.7158 130.771 95.214 129.786 95.1709C128.676 95.1238 127.565 95.0218 126.619 94.3195C126.43 94.1783 126.138 94.1783 125.93 94.0567C125.319 93.7036 124.76 93.2878 124.354 92.6915C124.212 92.4835 123.999 92.3227 123.802 92.1618C122.987 91.4988 122.463 90.6004 121.994 89.7138C121.482 88.7448 121.178 87.662 120.816 86.6185C120.662 86.1712 120.595 85.6926 120.485 85.2101C119.91 85.4258 119.666 85.7868 119.559 86.285C119.516 86.4851 119.39 86.6695 119.291 86.8539C119.106 87.2069 118.913 87.56 118.72 87.9092C118.669 88.0033 118.622 88.1014 118.551 88.1799C117.428 89.4039 116.317 90.6436 115.167 91.8401C114.851 92.1658 114.473 92.4561 113.993 92.5816C113.666 92.6679 113.366 92.8523 113.051 92.9857C112.598 93.1779 112.149 93.3545 111.629 93.3035C111.381 93.2799 111.117 93.3937 110.865 93.3819C110.51 93.3623 110.116 93.3662 109.813 93.2132C109.403 93.0092 109.021 92.7071 108.702 92.3776C108.154 91.8127 107.65 91.2281 107.335 90.4631C106.909 89.4313 106.799 88.3682 106.728 87.2815C106.696 86.795 106.622 86.3046 106.618 85.8182C106.614 85.3945 106.681 84.9708 106.72 84.5471C106.724 84.4843 106.763 84.4176 106.752 84.3588C106.574 83.3034 107.086 82.3227 107.063 81.2713C107.047 80.5416 107.307 79.8119 107.417 79.0782C107.469 78.7487 107.441 78.4035 107.48 78.07C107.555 77.4541 107.662 76.8421 107.736 76.2261C107.76 76.0261 107.721 75.8181 107.705 75.5161C106.606 76.1163 105.712 76.7244 105.641 78.0112C105.621 78.3485 105.613 78.6859 105.597 79.0194C105.597 79.0822 105.601 79.1606 105.57 79.2077C105.002 79.957 105.18 80.8946 104.916 81.7185C104.865 81.8793 104.817 82.0441 104.766 82.205C104.719 82.3462 104.616 82.4874 104.624 82.6247C104.679 83.429 104.234 84.1038 104.045 84.8413C103.994 85.0414 103.84 85.214 103.754 85.4062C103.446 86.0967 102.95 86.6773 102.714 87.4188C102.572 87.866 102.241 88.2662 101.953 88.6585C101.323 89.5137 100.775 90.4396 99.9676 91.1497C99.2663 91.7695 98.5533 92.3815 97.8441 92.9935C97.2611 93.4996 96.6189 93.9155 95.9059 94.2097C95.181 94.5079 94.4758 94.8884 93.7194 95.0649C93.1363 95.2022 92.4902 95.0924 91.8756 95.0571C91.6471 95.0414 91.4305 94.9002 91.202 94.8413C90.6425 94.704 90.2762 94.347 89.8704 93.9508C89.0982 93.1975 88.5821 92.2991 88.2 91.338C87.9321 90.6554 87.8218 89.9021 87.7154 89.1685C87.609 88.4506 87.5775 87.7248 87.546 86.999C87.5302 86.6185 87.6287 86.2379 87.613 85.8574C87.5539 84.5785 87.8809 83.3584 88.1212 82.1226C88.1882 81.7852 88.0936 81.4125 88.0424 81.0594C88.0109 80.8515 87.8809 80.6593 87.8533 80.4553C87.7863 79.9688 87.7154 79.5019 87.4633 79.0547C87.3096 78.7762 87.3333 78.3917 87.3057 78.0543C87.2821 77.7601 87.3372 77.4501 87.089 77.203C86.7344 77.1441 86.4626 77.3207 86.1947 77.4972C85.9662 77.6502 85.7574 77.8385 85.5289 77.9955C84.9853 78.3642 84.4337 78.7173 83.894 79.0861C83.2558 79.5216 82.6294 79.9649 81.9951 80.4043C81.8533 80.5023 81.7036 80.5847 81.5657 80.6828C81.1717 80.9731 80.7778 81.2595 80.3996 81.5655C79.9307 81.9382 79.4659 82.3148 79.0207 82.715C78.02 83.6173 77.0312 84.5353 76.0384 85.4455C75.7705 85.6926 75.6641 85.9908 75.6366 86.3556C75.5696 87.2697 75.4869 88.1799 75.3687 89.09C75.1953 90.4043 74.9826 91.7107 74.7896 93.021C74.7462 93.3152 74.7344 93.6173 74.6871 93.9115C74.5335 94.8531 74.3601 95.7946 74.2104 96.7362C74.0213 97.8974 73.8401 99.0587 73.6668 100.224C73.4737 101.507 73.2964 102.786 72.997 104.053C72.7094 105.277 72.5558 106.528 72.2918 107.76C72.083 108.741 71.8191 109.71 71.5394 110.675C71.2084 111.817 70.8893 112.97 70.4639 114.076C70.1605 114.861 69.9202 115.685 69.4317 116.399C69.1953 116.744 68.9826 117.109 68.7541 117.462C68.4822 117.878 68.1868 118.266 67.7061 118.47C67.6116 118.509 67.517 118.584 67.4501 118.662C66.7449 119.471 65.8585 119.969 64.8145 120.204C64.7514 120.22 64.6766 120.228 64.6332 120.271C64.3063 120.589 63.8532 120.573 63.4711 120.738C62.2813 121.252 61.1073 121.036 59.9254 120.757C59.7875 120.726 59.6654 120.616 59.5393 120.538C59.1769 120.314 58.8105 120.09 58.452 119.859C58.3259 119.781 58.1999 119.69 58.1053 119.577C57.4868 118.815 56.8761 118.05 56.2694 117.282C56.1946 117.183 56.167 117.046 56.1158 116.932C55.907 116.466 55.6943 116.003 55.4933 115.532C55.1348 114.7 54.8827 113.853 54.9457 112.927C55.0364 111.558 55.3082 110.228 55.6824 108.906C55.8479 108.329 56.0567 107.788 56.3167 107.25C56.5531 106.76 56.687 106.214 56.8958 105.708C57.3725 104.567 57.865 103.429 58.3614 102.291C58.8184 101.24 59.2635 100.185 59.756 99.1489C60.0475 98.5369 60.4139 97.9641 60.7567 97.3757C61.3279 96.4027 61.907 95.4298 62.4822 94.4608C62.5019 94.4255 62.5334 94.3902 62.561 94.3588C63.6089 93.1426 64.385 91.7342 65.3424 90.4553C65.8269 89.808 66.41 89.2313 66.934 88.6153C67.0758 88.4506 67.3043 88.2779 67.0443 87.9563C66.867 88.0308 66.6621 88.0896 66.4849 88.1956C65.6457 88.7056 64.846 89.294 63.9635 89.7217C63.1795 90.1022 62.3128 90.318 61.4737 90.5808C60.2288 90.9692 58.9523 90.9221 57.7232 90.6044C56.7343 90.3494 55.9385 89.6863 55.4539 88.7605C55.0403 87.9641 54.5991 87.1638 54.3351 86.3125C54.016 85.2768 53.7323 84.2254 53.5787 83.1387C53.299 81.1771 53.4014 79.2077 53.4172 77.2461C53.4211 76.6459 53.3896 75.9986 53.6929 75.4219C53.7678 75.2807 53.7363 75.0884 53.7599 74.9197C53.9569 73.5427 54.1105 72.1618 54.3706 70.7965C54.5084 70.0747 54.8236 69.3842 55.0718 68.682C55.1427 68.4819 55.2845 68.3524 55.5209 68.4231C56.0725 68.58 56.6555 68.6781 57.1677 68.9213C57.6798 69.1606 58.1408 69.5215 58.5859 69.8785C58.8814 70.1139 59.0193 70.4552 58.9011 70.8593C58.7869 71.2477 58.7356 71.6636 58.5781 72.0323C58.062 73.2485 57.8926 74.5353 57.7704 75.826C57.6326 77.2971 57.5222 78.7683 57.4316 80.2434C57.3962 80.8554 57.5262 81.487 57.4316 82.0873C57.3016 82.9347 57.4474 83.7428 57.6444 84.5392C57.8217 85.2572 58.1132 85.9476 58.389 86.6381C58.4756 86.8578 58.6765 87.0069 58.9563 86.9794C60.4573 86.8382 61.9385 86.6342 63.2544 85.8338C63.9123 85.4337 64.5544 85.0061 65.1769 84.5549C66.217 83.8017 67.2649 83.0524 68.2498 82.2246C68.5965 81.9343 68.9589 81.691 69.3174 81.4243C69.8769 81.0084 70.3811 80.518 70.9051 80.0551C71.2242 79.7726 71.5197 79.4627 71.8506 79.1959C72.15 78.9566 72.2485 78.6389 72.2643 78.2897C72.3037 77.3717 72.5164 76.4851 72.67 75.5867C72.7685 75.0217 72.804 74.445 72.8788 73.8762C72.9655 73.1818 73.0522 72.4835 73.1546 71.7891C73.2295 71.283 73.3516 70.7848 73.4146 70.2748C73.5368 69.2587 73.7653 68.2622 73.8913 67.2461C74.0134 66.2497 74.1041 65.2532 74.1868 64.2528C74.2459 63.5623 74.7777 63.1347 75.475 63.2132C75.6444 63.2328 75.8335 63.2524 75.9714 63.3387C76.7278 63.8134 77.4921 64.2842 78.2131 64.8138C78.4573 64.9943 78.5598 65.3434 78.5125 65.6926C78.4376 66.2418 78.4061 66.7989 78.3155 67.3481C78.15 68.3328 77.9452 69.3136 77.7679 70.2944C77.6891 70.7338 77.6655 71.181 77.5867 71.6165C77.3897 72.7738 77.1691 73.9233 76.9721 75.0806C76.9209 75.3748 76.8815 75.673 76.8854 75.9711C76.9051 76.8538 76.7239 77.7012 76.4954 78.5447C76.4481 78.7252 76.5348 78.9409 76.5781 79.2744C77.0233 78.9449 77.3582 78.6977 77.693 78.4466C77.8624 78.3211 78.02 78.1681 78.2013 78.0622C79.2137 77.4698 80.1474 76.7675 81.0417 76.0104C81.0732 75.9829 81.1008 75.9397 81.1402 75.928C81.9005 75.7122 82.4757 75.159 83.0667 74.7157C84.0004 74.0135 85.0877 73.6173 86.0568 72.9974C86.5414 72.6875 87.1205 72.4756 87.613 72.1579C88.2827 71.7302 88.8973 71.2242 88.9406 70.3101C88.9524 70.0708 89.0431 69.7648 89.2125 69.6196C89.8231 69.0978 90.1186 68.3721 90.5125 67.7247C91.0444 66.8577 91.6471 66.0927 92.5375 65.5749C93.0536 65.2728 93.6169 65.21 94.1606 65.3199C95.9098 65.669 97.5841 66.2497 99.1797 67.0657C100.46 67.7208 101.618 68.5251 102.572 69.6118C103.234 70.365 103.899 71.1143 104.561 71.8636C104.601 71.9107 104.66 71.9382 104.746 71.997C105.337 71.6675 105.916 71.3183 106.373 70.7887C107.228 69.804 108.095 68.8311 108.942 67.8385C109.245 67.4815 109.494 67.0774 109.773 66.7008C109.951 66.4615 110.144 66.23 110.309 65.9829C110.648 65.4768 111.125 65.4846 111.625 65.6298C112.539 65.8966 113.22 66.4654 113.792 67.2265C114.308 67.9131 114.284 68.5878 113.997 69.3215C113.307 71.0947 112.72 72.9072 112.46 74.7864C112.33 75.7201 112.023 76.6067 111.901 77.5247C111.779 78.4466 111.396 79.3489 111.578 80.3062C111.318 80.8162 111.396 81.389 111.286 81.9264C110.979 83.4172 110.841 84.9276 110.687 86.438C110.616 87.1481 110.687 87.8307 110.798 88.5173C110.876 89.0077 111.073 89.0822 111.515 88.8664C111.593 88.8272 111.676 88.7958 111.739 88.7409C113.28 87.407 114.8 86.0575 115.73 84.1861C115.84 83.9625 116.057 83.7938 116.207 83.5859C116.928 82.562 117.613 81.5145 118.094 80.3493C118.102 80.3297 118.106 80.3062 118.117 80.2905C119.02 79.3646 119.122 78.0465 119.74 76.9715C120.071 76.3948 120.186 75.6847 120.371 75.0296C120.639 74.088 120.883 73.1426 121.131 72.1971C121.178 72.0127 121.167 71.8126 121.214 71.6282C121.285 71.3654 121.379 71.1104 121.474 70.8554C121.509 70.7573 121.588 70.6671 121.608 70.5651C121.817 69.3842 122.376 68.3093 122.616 67.1402C122.723 66.6224 122.774 66.0967 122.939 65.5788C123.16 64.8844 123.396 64.2096 123.767 63.5466L123.759 63.5349ZM70.4757 91.1771C70.2432 91.3105 70.1566 91.3341 70.1093 91.3929C69.5026 92.103 68.8526 92.7817 68.305 93.5349C67.718 94.347 67.0443 95.0885 66.5321 95.9633C65.8388 97.156 64.8184 98.1524 64.3378 99.4824C64.2944 99.5961 64.1881 99.6864 64.1172 99.7962C64.0147 99.9571 63.8926 100.114 63.8217 100.291C63.4001 101.303 62.8722 102.252 62.2104 103.131C62.1395 103.225 62.0567 103.358 62.0686 103.464C62.1198 103.955 61.844 104.261 61.5328 104.571C61.387 104.716 61.2728 104.9 61.1861 105.088C60.6464 106.226 60.1184 107.368 59.5866 108.506C59.429 108.839 59.1493 109.125 59.2163 109.553C59.232 109.655 59.106 109.777 59.0547 109.898C58.9799 110.075 58.8853 110.251 58.846 110.436C58.6844 111.189 58.5268 111.942 58.3929 112.699C58.3574 112.899 58.4008 113.115 58.4205 113.323C58.4638 113.786 58.5229 114.245 58.5544 114.708C58.5938 115.257 58.5544 115.826 58.9681 116.277C59.0114 116.324 59.039 116.387 59.0587 116.446C59.3305 117.183 59.9215 117.364 60.6385 117.411C61.8085 117.486 62.6831 116.862 63.5183 116.207C64.4244 115.497 64.9917 114.504 65.5196 113.492C65.9569 112.652 66.3785 111.813 66.5833 110.883C66.607 110.781 66.6818 110.691 66.7134 110.593C66.9143 109.985 67.1231 109.38 67.3004 108.768C67.4304 108.317 67.4579 107.835 67.6273 107.403C67.8086 106.936 67.8992 106.469 67.9662 105.979C68.0686 105.23 68.1001 104.433 68.3916 103.755C68.7541 102.911 68.7817 102.032 68.9708 101.177C69.1441 100.393 69.2702 99.6001 69.4041 98.8076C69.4908 98.2858 69.5499 97.7562 69.6326 97.2305C69.6956 96.8107 69.7744 96.391 69.8414 95.9712C69.9517 95.2846 70.0581 94.5981 70.1684 93.9115C70.2432 93.4486 70.3457 92.9896 70.4008 92.5267C70.4481 92.1304 70.4481 91.7264 70.4796 91.1811L70.4757 91.1771ZM100.448 81.2046C100.295 81.2516 100.169 81.2713 100.062 81.3262C99.1757 81.7734 98.2972 82.2324 97.4108 82.6757C95.9413 83.4054 94.4127 83.9233 92.7542 84.0057C92.175 84.0331 92.0884 84.0763 92.0135 84.653C91.9268 85.3042 91.7496 85.9358 91.7338 86.6067C91.7062 87.8229 91.5644 89.0273 91.9111 90.2277C92.0844 90.8319 92.2578 90.9731 92.8724 90.777C93.4003 90.6044 93.8494 90.314 94.3103 89.9923C94.98 89.5294 95.634 89.0704 96.1777 88.4741C96.938 87.6424 97.7496 86.8342 98.3681 85.9084C99.0497 84.8884 99.7746 83.8684 100.157 82.6797C100.302 82.2285 100.685 81.8205 100.452 81.2046H100.448ZM93.7745 79.3019C93.9912 79.2469 94.1409 79.1685 94.2788 79.1842C94.6885 79.2312 95.0194 79.0272 95.3661 78.8742C95.7956 78.682 96.2131 78.4702 96.6307 78.2622C96.7056 78.2269 96.7726 78.1681 96.8395 78.121C97.0996 77.9445 97.3556 77.7562 97.6196 77.5914C97.9623 77.3756 98.3287 77.1991 98.6596 76.9676C99.2506 76.5518 99.8179 76.1045 100.401 75.673C100.779 75.3944 101.169 75.1316 101.528 74.8295C101.658 74.7236 101.772 74.5196 101.776 74.3627C101.776 74.092 101.736 73.7977 101.626 73.5506C101.094 72.3776 100.235 71.4752 99.1718 70.7573C98.8842 70.5612 98.4942 70.5769 98.3839 70.8554C98.2302 71.2359 97.9072 71.4321 97.6747 71.7263C97.202 72.3187 96.7608 72.9346 96.3077 73.5388C95.8743 74.1116 95.5158 74.7314 95.2361 75.3866C94.9091 76.1516 94.5979 76.9205 94.2946 77.6934C94.0936 78.1995 93.7469 78.6624 93.7785 79.3058L93.7745 79.3019Z" fill="#017CC2"/>
<path d="M86.7541 102.95C87.3096 102.899 87.869 102.88 88.4127 102.786C89.3897 102.613 90.3668 102.589 91.3556 102.621C91.525 102.625 91.7141 102.652 91.8677 102.593C92.7936 102.24 93.7785 102.393 94.7279 102.248C95.5946 102.119 96.4692 102.048 97.3438 101.974C97.6787 101.946 98.0214 101.977 98.3563 101.974C98.5257 101.974 98.699 101.938 98.8684 101.938C99.16 101.938 99.4554 101.97 99.747 101.95C100.129 101.923 100.507 101.86 100.886 101.801C101.39 101.726 101.894 101.573 102.398 101.573C104.116 101.573 105.838 101.628 107.555 101.656C107.725 101.656 107.902 101.64 108.067 101.597C109.163 101.311 110.289 101.381 111.404 101.334C112.216 101.303 113.031 101.263 113.843 101.232C114.012 101.224 114.186 101.24 114.359 101.244C115.194 101.256 116.033 101.263 116.869 101.279C117.192 101.283 117.511 101.287 117.834 101.303C119.161 101.362 120.485 101.42 121.813 101.487C122.498 101.522 123.184 101.538 123.861 101.628C125.106 101.797 126.359 101.934 127.565 102.327C127.907 102.436 128.262 102.499 128.609 102.601C129.526 102.868 129.928 103.774 130.661 104.28C130.819 104.386 130.803 104.747 130.854 104.994C130.905 105.242 130.905 105.504 130.988 105.732C131.177 106.238 131.055 106.713 130.563 106.979C130.338 107.101 130.117 107.289 129.786 107.183C129.621 107.132 129.393 107.274 129.196 107.333C129.034 107.38 128.845 107.521 128.723 107.474C128.195 107.274 127.659 107.062 127.186 106.76C126.993 106.634 126.824 106.477 126.595 106.434C125.796 106.269 124.996 106.069 124.188 105.971C123.168 105.85 122.14 105.795 121.111 105.759C120.595 105.744 120.091 105.779 119.603 105.54C119.429 105.453 119.165 105.461 118.968 105.52C118.291 105.72 117.613 105.689 116.924 105.602C116.522 105.551 116.112 105.583 115.702 105.575C114.737 105.555 113.772 105.508 112.807 105.528C112.188 105.54 111.574 105.681 110.959 105.701C109.423 105.744 107.902 106.105 106.362 105.971C105.779 105.92 105.215 105.948 104.644 106.069C104.384 106.124 104.088 106.014 103.817 106.034C102.698 106.109 101.583 106.211 100.464 106.289C99.1915 106.379 97.9111 106.434 96.6386 106.544C95.5079 106.638 94.3852 106.795 93.2584 106.909C92.2144 107.015 91.1704 107.105 90.1304 107.203C90.1107 107.203 90.0831 107.195 90.0673 107.203C89.4725 107.505 88.8343 107.274 88.2236 107.336C87.9872 107.36 87.739 107.36 87.5224 107.438C86.4035 107.846 85.2177 107.858 84.0673 108.058C83.5237 108.156 82.976 108.231 82.4284 108.333C82.3103 108.356 82.1645 108.4 82.0896 108.482C81.8414 108.776 81.5499 108.768 81.215 108.678C80.8841 108.588 80.5453 108.529 80.2144 108.451C79.8953 108.376 79.6707 108.215 79.6037 107.87C79.5053 107.372 79.3595 106.881 79.3004 106.375C79.2649 106.069 79.3555 105.748 79.3949 105.434C79.4225 105.202 79.4698 104.971 79.4816 104.735C79.5053 104.218 79.6944 103.97 80.1868 103.939C81.5145 103.857 82.8185 103.606 84.1185 103.339C84.7055 103.217 85.3044 103.166 85.8953 103.06C86.1829 103.009 86.4587 102.915 86.7423 102.841C86.7502 102.876 86.7581 102.911 86.766 102.946L86.7541 102.95Z" fill="#017CC2"/>
</g>
<defs>
<clipPath id="clip0_1_8">
<rect width="161" height="121.044" fill="white"/>
</clipPath>
</defs>
</svg>
